<svg width="428" height="101" viewBox="0 0 428 101" fill="none" xmlns="http://www.w3.org/2000/svg">
<path d="M-138.354 -21.3712C-138.787 -21.5466 -138.405 -21.9373 -137.933 -21.7818C-83.7365 -4.16284 -30.6468 -31.5759 13.3924 -47.2257C16.1789 -48.2183 18.999 -49.1909 21.8473 -50.1555C3.39235 -46.4524 -14.6188 -42.0955 -30.8715 -35.9926C-88.0117 -14.5309 -146.068 -22.4834 -154.006 -49.4062C-183.742 -13.949 -107.714 30.4015 2.43172 -27.7611C27.7181 -41.1149 54.291 -49.3543 87.8639 -53.8029C120.083 -58.0721 130.746 -55.6047 150.15 -49.8805C167.948 -44.6307 183.364 -35.7853 196.571 -25.9713C208.51 -17.1021 216.083 -6.21575 224.375 4.26396C224.268 4.32774 224.156 4.39151 224.049 4.45529C202.869 -15.5355 184.97 -37.7306 150.521 -47.4609C132.206 -52.635 118.841 -54.1179 88.5774 -50.7495C57.9259 -47.3374 37.6282 -34.6732 16.8586 -21.5785C-20.9671 2.27886 -31.0457 43.3207 -7.55701 72.691C6.75754 90.593 36.3417 101.866 70.3696 100.367C83.5437 99.7852 97.7853 96.5085 106.032 90.3219C115.746 83.0272 119.24 72.0492 113.74 63.3713C108.903 55.7417 91.6449 44.8315 76.6786 51.2373C60.1113 58.3287 87.6617 69.9804 94.6841 59.2017C94.9145 59.1738 95.2122 59.114 95.6055 58.9984C104.628 57.4398 105.37 67.0146 104.763 69.7213C103.532 75.1943 97.656 78.467 89.892 80.209C85.3302 82.7521 79.0438 84.4423 70.9539 84.9206C47.5327 86.3078 25.4653 80.0376 11.5272 69.2589C-2.78739 58.1932 -4.30423 43.249 -3.92783 29.947C-3.48402 14.1577 4.04409 0.584723 24.0833 -10.5846C24.9485 -11.0669 26.1001 -10.3375 25.3586 -9.83123C-2.05705 8.97964 -7.32105 39.6454 12.6002 61.733C21.6564 71.7742 38.7911 80.8747 59.2068 81.8792C62.6786 82.0506 66.0438 82.0107 69.2741 81.7915C59.9539 81.5045 50.9203 80.1492 45.2012 78.4311C-24.6412 57.4677 22.3137 -18.7962 81.0157 -31.8709C129.201 -42.6017 152.229 -39.5244 175.802 -24.1417C177.796 -22.8422 179.723 -21.4988 181.611 -20.1236C172.903 -21.3194 162.543 -20.1355 162.167 -13.0401C162.111 -12.0037 162.976 -10.7959 164.51 -10.5288C183.493 -7.17643 199.886 2.16723 216.015 10.0718C207.257 16.96 199.79 24.8048 189.633 30.6725C174.684 39.3106 153.993 37.9632 140.909 28.1891C135.15 23.884 135.15 16.3302 139.712 11.6225C140.308 11.0086 141.088 10.3748 141.97 9.7689C145.959 18.3831 165.616 18.4588 165.313 8.06679C165.184 3.65407 161.74 -0.603195 155.42 -1.90668C146.527 -3.74431 138.948 -1.02573 132.583 3.37902C118.993 12.7785 127.341 25.6499 139.296 33.5505C152.279 42.1328 170.796 43.1134 186.442 38.1147C201.408 33.3313 210.33 22.6204 221.302 14.3211C231.964 23.2064 243.768 31.2346 259.065 36.7435C273.942 42.1009 289.504 45.7443 305.914 47.8012C322.183 49.8381 337.503 49.304 353.464 47.3507C359.509 49.571 365.852 51.2452 372.323 52.1222C389.481 54.4541 406.571 50.8506 421.7 45.2739C422.43 45.0029 422.29 44.4408 421.79 44.1737C423.643 43.4482 425.475 42.6669 427.261 41.8259C427.261 41.8259 408.52 47.3786 390.014 47.566C371.509 47.7533 357.436 37.5008 359.767 27.8064C364.318 8.88395 394.138 14.8592 393.571 23.7684C397.419 15.8678 383.222 3.61818 370.234 6.72342C355.026 10.3548 350.43 22.8835 353.329 32.9327C353.447 33.3393 352.604 33.6143 352.335 33.2077C345.397 22.7838 356.874 3.30327 375.812 4.92564C384.554 5.67504 392.975 10.3788 395.863 16.37C397.587 19.9456 397.222 24.3663 393.969 27.0929C403.065 25.602 405.458 17.0517 403.357 11.467C400.413 1.85629 389.728 -3.74831 376.29 -4.04329C347.003 -4.68905 332.239 18.7179 348.352 37.1461C346.56 36.1734 344.812 35.1609 343.11 34.1126C336.194 28.0017 330.003 21.5242 328.992 19.9695C322.717 9.68915 320.666 -1.09747 306.7 -8.56362C293.548 -15.4159 281.981 -12.4063 268.318 -15.376C259.155 -17.3691 259.285 -20.3468 257.762 -23.9623C251.684 -14.3476 257.492 -9.85115 266.796 -6.86948C264.234 -6.84158 261.7 -6.722 259.217 -6.50674C247.234 -5.47034 236.459 -2.32923 227.133 2.67744C219.425 -7.53121 212.172 -18.0069 201.723 -26.7327C191.33 -35.4106 178.869 -42.8569 164.807 -48.3737C111.409 -69.3252 47.4821 -55.9515 -2.83793 -37.0649C-41.0737 -22.7146 -93.8769 -3.29782 -138.371 -21.3752L-138.354 -21.3712ZM285.543 1.3899C303.043 5.94612 312.47 20.4917 323.65 30.0825C329.576 35.1689 336.891 39.9523 345.02 43.811C335.666 43.4203 326.312 43.0656 317.121 41.4512C300.099 38.4575 289.296 28.516 281.183 18.0363C279.116 15.3655 274.217 16.2704 272.279 18.3671C266.245 24.9005 268.251 31.2266 274.504 36.0897C261.464 31.5415 249.925 25.2951 239.835 17.8768C236.751 14.6998 233.931 11.3753 231.234 7.9791C246.751 -0.208549 266.543 -3.55697 285.537 1.3899L285.543 1.3899Z" fill="#E55411" fill-opacity="0.29"/>
</svg>
