<svg width="392" height="62" viewBox="0 0 392 62" fill="none" xmlns="http://www.w3.org/2000/svg">
<path d="M337.161 26.0366C337.419 25.9152 337.191 25.6449 336.91 25.7525C304.604 37.9437 272.957 18.9757 246.706 8.14702C245.045 7.46024 243.364 6.78724 241.666 6.11976C252.667 8.68211 263.403 11.6968 273.091 15.9196C307.152 30.7696 341.759 25.267 346.491 6.63826C364.216 31.1723 318.897 61.8599 253.239 21.6152C238.166 12.3753 222.326 6.67415 202.313 3.59602C183.108 0.642005 176.752 2.34931 165.185 6.31007C154.576 9.9426 145.387 16.063 137.513 22.8537C130.397 28.9906 125.883 36.5232 120.94 43.7745C121.004 43.8186 121.071 43.8628 121.134 43.9069C133.759 30.0746 144.429 14.717 164.964 7.98427C175.881 4.40414 183.848 3.3781 201.888 5.70877C220.159 8.06977 232.259 16.8325 244.639 25.8932C267.187 42.4009 273.195 70.7992 259.193 91.1215C250.661 103.508 233.026 111.309 212.742 110.272C204.889 109.869 196.399 107.602 191.483 103.321C185.693 98.2735 183.61 90.6774 186.889 84.6729C189.772 79.3937 200.06 71.8445 208.981 76.2769C218.857 81.1837 202.434 89.2459 198.248 81.7878C198.111 81.7685 197.933 81.7271 197.699 81.6471C192.32 80.5687 191.878 87.1938 192.24 89.0666C192.973 92.8536 196.476 95.1181 201.105 96.3234C203.824 98.0831 207.571 99.2526 212.393 99.5836C226.355 100.543 239.509 96.2048 247.817 88.7467C256.35 81.09 257.254 70.7495 257.03 61.5455C256.766 50.6203 252.278 41.2287 240.333 33.5003C239.817 33.1665 239.131 33.6713 239.573 34.0215C255.915 47.0374 259.053 68.2561 247.178 83.5392C241.779 90.4871 231.566 96.784 219.396 97.4791C217.326 97.5977 215.32 97.5701 213.395 97.4184C218.95 97.2198 224.335 96.2821 227.744 95.0933C269.377 80.588 241.388 27.8184 206.396 18.7715C177.673 11.3465 163.946 13.4758 149.894 24.1197C148.705 25.0188 147.557 25.9484 146.431 26.8999C151.622 26.0725 157.797 26.8916 158.022 31.8012C158.055 32.5183 157.539 33.3541 156.625 33.5389C145.309 35.8585 135.538 42.3237 125.923 47.7932C131.144 52.5593 135.594 57.9874 141.649 62.0475C150.56 68.0245 162.894 67.0922 170.694 60.3291C174.126 57.3503 174.126 52.1235 171.407 48.8661C171.052 48.4413 170.587 48.0028 170.061 47.5835C167.683 53.544 155.965 53.5964 156.146 46.4058C156.223 43.3525 158.276 40.4067 162.044 39.5048C167.345 38.2333 171.862 40.1144 175.657 43.1622C183.757 49.666 178.781 58.5721 171.655 64.0389C163.916 69.9772 152.878 70.6558 143.551 67.197C134.63 63.8872 129.312 56.4759 122.772 50.7334C116.416 56.8814 109.38 62.4364 100.261 66.2482C91.3932 69.9552 82.1169 72.4762 72.3349 73.8994C62.6367 75.3088 53.5044 74.9392 43.9904 73.5877C40.387 75.124 36.6062 76.2825 32.7483 76.8893C22.521 78.5028 12.3338 76.0094 3.31536 72.1507C2.88001 71.9632 2.96374 71.5743 3.26178 71.3895C2.15667 70.8875 1.06493 70.3469 -3.54926e-06 69.7649C-3.54926e-06 69.7649 11.1717 73.607 22.2028 73.7367C33.2339 73.8663 41.6227 66.7723 40.233 60.0643C37.5204 46.9712 19.7448 51.1058 20.083 57.2703C17.789 51.8036 26.2515 43.3277 33.9941 45.4763C43.0594 47.989 45.7987 56.658 44.0707 63.6114C44.0004 63.8927 44.5027 64.083 44.6635 63.8017C48.7993 56.589 41.9576 43.1098 30.6687 44.2324C25.4579 44.7509 20.438 48.0056 18.7167 52.1511C17.6886 54.6252 17.9062 57.684 19.8452 59.5706C14.4234 58.5391 12.9969 52.6228 14.2493 48.7586C16.0041 42.1086 22.3736 38.2306 30.384 38.0264C47.8415 37.5796 56.6423 53.7757 47.0378 66.5268C48.1061 65.8538 49.1476 65.1532 50.1623 64.4278C54.2847 60.1995 57.9751 55.7174 58.5779 54.6417C62.3186 47.5284 63.5409 40.0648 71.8661 34.8987C79.7057 30.1573 86.601 32.2398 94.7453 30.1849C100.207 28.8058 100.13 26.7455 101.038 24.2438C104.661 30.8965 101.199 34.0078 95.6529 36.0709C97.18 36.0902 98.6903 36.1729 100.17 36.3219C107.314 37.039 113.737 39.2125 119.296 42.6767C123.89 35.613 128.214 28.3645 134.442 22.3269C140.638 16.3223 148.066 11.17 156.448 7.35267C188.278 -7.14435 226.385 2.10936 256.38 15.1776C279.173 25.1071 310.648 38.5422 337.171 26.0338L337.161 26.0366ZM84.4778 41.7858C74.0462 44.9385 68.4268 55.0031 61.7626 61.6393C58.2296 65.1587 53.8694 68.4685 49.0237 71.1384C54.5995 70.8681 60.1753 70.6227 65.654 69.5056C75.801 67.4342 82.2408 60.5553 87.0765 53.304C88.3089 51.456 91.2291 52.0822 92.3844 53.533C95.9811 58.0536 94.7855 62.4309 91.0583 65.7958C98.8309 62.6488 105.709 58.3267 111.724 53.1937C113.562 50.9954 115.244 48.6951 116.851 46.3451C107.602 40.6798 95.8036 38.3629 84.4812 41.7858L84.4778 41.7858Z" fill="#E55411" fill-opacity="0.29"/>
<path d="M288.248 92.9584C281.296 94.0424 279.35 86.1457 278.804 82.0139C277.82 74.5337 275.938 67.1583 273.553 59.9016C272.328 56.1697 270.971 52.4683 269.545 48.7833C268.497 46.072 267.636 41.3721 264.843 39.4469C268.483 41.9596 272.271 44.3868 275.636 46.7919C282.786 51.8973 290.184 56.7379 298.502 60.991C314.781 69.3125 333.571 74.6606 352.864 78.922C353.272 79.013 353.544 78.5579 353.142 78.4448C333.303 73.0333 313.331 66.444 297.126 56.8896C289.323 52.289 282.24 47.2194 275.295 42.0478C273.111 40.4205 270.931 38.636 268.667 36.8762C276.765 40.5529 279.976 44.1358 293.626 46.4444C305.598 48.3199 315.045 47.0595 326.03 44.7067C325.41 48.4385 322.443 52.7468 317.815 55.4995C323.478 58.037 330.554 56.8262 336.984 58.8176C342.6 60.2932 349.153 64.938 354.023 67.4921C365.425 74.1586 375.194 79.7991 391.791 78.9192C359.14 92.3461 324.784 86.1595 298.716 70.7688C299.728 75.5267 296.114 91.7255 288.251 92.9501L288.248 92.9584Z" fill="#E55411" fill-opacity="0.29"/>
</svg>
