<?xml version="1.0" encoding="UTF-8"?><svg id="a" xmlns="http://www.w3.org/2000/svg" viewBox="0 0 1080 1080"><path d="M633.65,126.29c-.08,.23-.15,.47-.23,.7,.56,.55,1.13,1.16,1.74,1.84-.51-.87-1.02-1.71-1.51-2.54Z"/><path fill="#4e4e4e" d="M758.47,353.42c-4.32-3.53-9.68-7.9-15.11-12.33,2.55-.48,5.81-1.08,9.06-1.69,.77-2.09,1.54-4.18,2.74-7.44,9.62,1.62,19.22,3.25,28.65,4.84,2.88-2.74,5.46-5.2,6.46-6.15,13.13-2.16,24.44-4.02,39.3-6.46-10.37-2.91-17.29-4.85-24.21-6.79-.6-.51-1.19-1.03-1.79-1.54,2.9,.27,5.8,.54,8.7,.81-1.33-1.86-2.65-3.72-3.98-5.58,5.87,0,11.9-.84,17.56,.26,4.75,.92,8.83,5.62,16.05,1.46-7.19-4.09-13.25-7.55-19.29-10.98,13.14-6.24,25.91,3.39,41.89,1.56-4.81-3.31-7.12-5.7-9.92-6.67-11.09-3.87-22.66-6.19-33.65-10.46-2.62-1.02-5.87-.48-8.83-.5-7.23-.05-14.57,.74-21.68-.16-20.89-2.66-39.73,5.09-58.72,11.3-7.83,2.56-14.98,7.83-21.75,12.8-5.28,3.88-8.73,11.04-14.39,13.43-6.7,2.84-7.32,9.71-13.73,13.94-.27-5.74-2.47-11.85-.37-15.52,6.21-10.88,2.22-22.11,3.12-33.08,.86-10.44-5-20.01-6.11-29.74-1.44-12.6-7.48-22.69-12.72-32.89-5.96-11.61-15.09-21.83-24.01-31.6-5.97-6.53-13.96-11.22-24.54-19.45,7.14,15.15,17.98,22.52,23.94,34.93-5.21-1.34-9.81-2.53-14.41-3.72,4.53,6.8,9.06,13.59,15.34,24.09,.28-.78,.58-1.56,.84-2.35,.62,2.18,1.24,4.37,.43,4.48-.73,1.86-2.07,1.13-2,.6,.1-.72,.3-1.43,.53-2.14-3.84-3.82-6.26-4.3-8.39-5.37-2.44-1.23-4.52-3.18-6.76-4.81-1.29,4.97,2.01,7.65,5.09,10.57,6.77,6.41,13.6,12.8,16.65,22.04,1,.4,2,.8,3,1.19-1,.81-2,1.62-3,2.43,2.66,4.1,5.31,8.21,9.47,14.63-8.06-1.52-10.1-10.15-16.72-7.38,2.62,5.42,5.23,10.84,8.23,17.05-4.86-1.05-8.35-1.8-11.85-2.55-.35,3.99,9.11,7.27,1.65,11.02,4.82,4.79,9.67,9.63,14.53,14.47-.69,1.07-1.37,2.14-2.06,3.21-2.37-.58-4.81-.96-7.09-1.79-12.89-4.72-21.49-15.12-28.39-25.69-10.26-15.73-24.65-25.79-39.93-35.16-8.08-4.96-16.91-8.69-25.27-13.21-4.68-2.54-10.35-2.18-14.61-4.04-7.96-3.47-16.4-4.74-24.45-6.29-10.43-2.01-21.53-.49-32.73-.49-.49,1.85-.92,3.47-1.61,6.09,14.01,1.8,28.25,1.92,44.36,11.34h-19.79c-2.1,2.33-3.71,4.11-5.39,5.96,.46,.52,1.17,1.92,1.74,1.87,10.64-.93,20.94,.82,31.05,3.84,1.21,.36,1.95,2.3,2.85,4.91-7.03-1.41-14.12-1.41-23.8-1.41,4.09,3.66,5.87,6.62,8.12,7.04,9.05,1.7,18.28,2.39,27.36,3.91,5.92,.99,11.71,2.79,17.19,6.83h-19.73c6.31,6.15,11.57,3.26,16.05,3.83,4.62,.59,9.38,.13,14.35,.13v7.25h-24.58c10.02,4.04,20.4,5.58,30.68,13.55-6.57,.6-11.09,1.01-15.88,1.45,.32,1.16,.51,2,.79,2.82,2.18,6.37,8.67,2.32,12.8,5.31-1.03,1.3-1.99,2.5-3.39,4.26,8.56,2.16,16.98,4.29,25.41,6.43-.02,.6-.03,1.2-.05,1.8-5.7,.35-11.4,.7-18.54,1.14,6.47,10.03,17.45,7.5,26.32,12.24-5.47,2.76-9.97,1.93-14.78,.32-10.92-3.65-21.95-6.43-33.74-5.94-15.82,.65-31.7-.99-47.32,3.63-23.35,6.92-45.85,15.32-64.74,31.38-5.27,4.48-11.36,8.09-16.23,12.94-.62,.62-1.22,1.26-1.8,1.91-7.41,.89-10.7,.19-18.37-4.12,8.43-3.03,15.7-5.65,22.97-8.26-.22-.73-.44-1.47-.66-2.2-4.13,.62-8.26,1.25-15.23,2.3,14.38-8.13,26.16-14.78,39.1-22.1-4.37-1.89-6.7-2.89-6.4-2.76-6.09,2.94-10.25,4.95-14.42,6.96-.45-.79-.9-1.58-1.35-2.37,10.17-7.52,20.34-15.03,30.51-22.55-.39-.74-.79-1.47-1.18-2.21-4.71,1.69-9.43,3.39-15.91,5.72,1.9-4.45,2.88-6.75,4.26-9.97,4.39-1.58,9.81-2.67,14.25-5.36,4.55-2.77,8.15-7.11,12.38-10.95-25.53,5.65-30.03,8.69-53.61,25.72-13.81,9.97-23.21,22.66-33.02,36.26-22.52,31.25-26.46,65.5-22.36,101.99,.87,7.77,.82,15.17-3.99,21.49-11.9-.28-23.2-1.4-34.34-.56-9.56,.72-19.1,3.15-28.37,5.79-9.72,2.77-19.14,6.62-28.63,10.17-6.03,2.25-11.13,5.72-16.5,9.56-16.83,12.02-29.41,27.06-41.72,43.43-12.93,17.19-18.16,36.01-22.06,57.3,7.58-1.57,8.69-5.78,9.15-11.6,.58-7.24,2.28-14.53,10.74-16.91,.25-1.46,.76-2.82,1.28-4.17,.54,.26,1.09,.51,1.63,.77-.72,1.26-1.44,2.52-2.16,3.78-.34-.16-.68-.32-.75-.38,1.63,3.91,3.01,7.73,4.38,11.54,2.9-5.05,4.74-11.55,9.03-14.71,3.91-2.87,4.68-11.99,12.54-8.46-2.16,5.62-4.23,11.02-6.31,16.42,10.62-6.33,17.9-15.27,27.18-20.97,10.47-6.42,10.01-21.09,22.02-25.62,1.68,.69,3.48,1.43,5.11,2.09,1.57-1.87,3.15-3.75,4.46-5.72,.25-1.46,.76-2.82,1.28-4.17,.54,.26,1.09,.51,1.63,.77-.72,1.26-1.44,2.52-2.16,3.78-.34-.16-.67-.32-.75-.38,1.18,2.64,2.09,5.19,3.01,7.73,5.4-4.37,10.79-8.75,15.64-12.68,2.49,.41,4.3,.7,6.57,1.07,5.68-7.55,6.54-18.9,17.3-22.25,.8,2.23,1.47,4.09,2.14,5.95,3.48-2.63,6.96-5.25,10.05-7.59,5.89-.08,11.47-.15,17.85-.24-7.1,14.75-15.51,28.7-20.57,43.78-4.52,13.49-7.15,28.2-7.31,42.4-.17,14.99,2.67,30.22,5.85,44.99,3.16,14.66,12.7,26.77,20.55,39.15,7.81,12.32,18.68,22.69,28.46,34.22,2.84-2.46,4.24-3.67,5.67-4.91q-14.23-13.32-17.75-30.2c2.36,.43,4.77,.88,7.19,1.32-4.37-8.27-8.74-16.53-14.65-27.71,9.08,4.52,10.46,13.31,18.16,13.53-3.07-5.44-3.04-11.83-9.62-16.37-5.61-3.87-7.94-12.5-11.83-18.76-1.46-.25-2.82-.76-4.17-1.28,.26-.55,.51-1.09,.77-1.63,1.26,.72,2.52,1.44,3.78,2.16-.16,.34-.32,.68-.38,.75,1.37-.72,2.64-1.18,3.91-1.63-3-4.37-5.99-8.75-8.99-13.12,.59-.51,1.18-1.01,1.77-1.52,4.49,2.69,8.98,5.39,13.47,8.08-2.23-6.2-4.46-12.4-7.9-21.97,7.15,4.83,11.14,7.52,15.18,10.25-.97-6.99-1.81-13.02-2.6-18.66-4.04-3.94-8.05-7.86-12.96-12.66,3.07-1.74,5.11-2.89,6.96-3.93,2.32,2.56,3.99,4.4,5.67,6.24,.82-.54,1.64-1.08,2.47-1.62-2.61-7.26-5.22-14.53-9.09-25.28,4.92,4.95,7.01,7.06,9.11,9.18,.57-.3,1.14-.59,1.71-.89-4.39-7.98-8.78-15.97-13.85-25.18,4.24,.43,6.29,.65,6.44,.66,2.72-4.71,4.98-8.61,7.16-12.39-.86-3.11-1.69-6.14-2.51-9.13,2.51-.9,3.76-1.35,6.27-2.26,4.7,9.17,11.56,17.41,17.68,25.86,6.16,8.5,14.35,17.14,15.8,28.74,16.4,15.55,22.87,37.73,36.71,55.08,4.37,5.48,4.02,15.38,8.96,19.58,6.02,5.12,6.81,11.44,8.62,17.38,2.2,7.22,8.13,11.74,10.85,18.02,6.25,14.43,12.38,28.79,19.27,42.99,11.14,22.94,18.72,47.72,26.5,72.14,7.63,23.92,19.61,46.26,22.48,72.06,1.7,15.26,10.85,29.35,11.73,45.57,.05,.92,.14,1.83,.26,2.74,14.71-.81,29.47-.33,44.21,.04,.03-4.69-.99-9.45-2.07-14.21-.37-1.6-1.77-3.04-1.89-4.61-1.32-16.98-2.92-33.96-3.59-50.98-.96-24.25-5.11-48.25-3.97-72.7,1.12-24.08-.09-48.25,.41-72.37,.2-9.78,2.74-19.48,3.32-29.28,.61-10.22-2.11-21.19,.76-30.56,2.89-9.43,2.11-18.45,3.09-27.64,.72-6.79,2.8-13.44,3.4-20.24,.67-7.47,.16-14.73,3.36-22.18,2.58-6.01,.77-13.18,3.38-20.28,3.7-10.04,2.15-21.88,4.47-32.6,3.2-14.79,7.75-29.3,12.07-43.83,1.9-6.39,4.66-12.52,7.1-18.98,1.74,1.58,3.01,2.73,5.97,5.4,0-7.92-.61-14.44,.19-20.78,.69-5.49,2.97-10.78,4.83-17.11,3.66,6.63,7.02,12.7,10.17,18.41,3.25-1.76,5.64-3.06,9.17-4.97-1.16,9.5-2.15,17.64-3.15,25.78,.96,.47,1.91,.94,2.87,1.42,1.29-3.33,2.58-6.67,3.86-10,1.21,.84,2.42,1.67,3.63,2.51-1.08,9.13-2.15,18.27-3.23,27.4,.87,.4,1.74,.79,2.61,1.19,2.56-3.4,5.13-6.81,7.91-10.51,3.61,9.48-1.75,16.46-6.05,24.21,1.78,.41,3.42,.79,6.2,1.44,.43,3.84,.94,8.33,1.72,15.29,3.65-4.86,6.25-8.32,10-13.32v22.86c4.36-4.69,8.73-9.39,14.25-15.32-1.29,7.25-2.33,13.1-3.38,18.95,1.9-1.11,3.8-2.23,7.18-4.21-2.3,19.21-15,34.83-14.41,55.69,4.23-5.56,7.3-9.6,11.41-15v-10.53c3.05,.12,2.02,4.21-.17,23.49-.93,8.12-7.52,13.81-7.71,25.5,6.54-8.6,11.16-14.66,15.87-20.86,7.57,8.56,.08,16.38-2.08,22.87-2.37,7.1-2.28,13.29-.74,20.65,4.33-9.18,7.58-19.11,13.28-27.35,6.15-8.89,3.65-20.01,9.69-28.73,1.7-2.45,.29-7.06,.29-10.67,0-14.49,.36-28.99-.09-43.46-.52-16.71-5.76-32.19-14-48.05v-14.81c1.99-.24,3.63-.43,6.58-.78v17.48c.84,.15,1.68,.31,2.52,.46,.81-3.33,1.61-6.67,3.13-12.93,4.33,11.48,7.75,20.55,12.17,32.27,.14,.09,3.01,1.85,7.13,4.37,2.91,11.68,12.37,20.9,23.06,34.25-1.96-10.46-3.24-17.24-4.89-26.05,11.61,7.42,13.37,17.28,15.24,27.28,.67,3.59,2.79,6.9,6.91,9.72v-17.48h7.21c1.67,10.17,3.35,20.33,5.2,31.6,.94,1.83,2.5,4.86,4.01,7.8,.43-.36,1.23-.73,1.23-1.09,.06-13.71,2.95-28.2-.48-40.98-12.5-46.59-22.57-68.54-55.78-99.92-1.52-5.34-3.03-10.63-5.18-18.18,4.39,1.64,7.18,2.68,10.2,3.8,.75-.64,1.99-1.7,3.75-3.21,8.68,7,17.26,13.91,27.02,21.77,.2-.1,2.22-1.06,5.49-2.61,6.53,3.77,14.15,8.17,23.72,13.7h10.06c-3.3-5.68-6.61-11.36-10.71-18.42,16.35,2.84,23.42,16.74,36.59,27.24-1.74-4.9-2.64-7.5-3.59-10.08-1.46-3.96-2.95-7.9-5.58-14.93,5.12,2.38,7.81,2.96,9.56,4.57,5.7,5.26,10.85,11.12,16.66,16.24,1.9,1.67,5.17,1.79,7.81,2.62-27.98-50.59-72.13-76.27-129.17-84.47Zm-219.09-96.92c-2.3-.2-4.61-.4-6.86-1.99,.02-.21,.06-.97,.1-1.73,2.36,.46,4.72,.92,7.08,1.39-.11,.78-.21,1.56-.32,2.34Zm64.53,111.39c.52,3.1,.86,5.12,1.31,7.8h-17.19c6.79-3.34,10.84-5.33,15.89-7.8Zm2.91,37.2c5.19,7.7-.9,13.63-2.33,20.47-1.97,.99-5.38,1.6-6.81,3.61-9.83,13.9-21.37,26.79-28.14,42.58-3.68,8.57-7.07,17.28-9.25,26.31-14.36-12.03-29.76-21.36-44.8-27.68,1.43-1.86,2.55-3.96,4.18-6.99h10.31c6-9.85,11.84-19.46,18.47-30.37,1.14,2.71,1.64,3.98,2.21,5.23,.47,1.02,1.01,1.99,1.52,2.99,2.36-3.6,4.71-7.2,8.55-13.09,.53,7.09,.87,11.61,1.14,15.29,5.89-5.89,11.95-11.95,18-18,2.57,2.57,3.42,3.42,5.47,5.47,7.18-8.63,14.26-17.15,21.46-25.82Zm-181.18-28.14c-2.77,3.47-5.06,7.49-6.94,12.17-2.09,.4-4.59,.87-7.82,1.48,6.63-6.13,10.74-9.93,14.76-13.65Zm-27.67,73.65c-1.23-.69-2.85-1.59-6.14-3.42,5.01-4.19,9.31-7.78,13.56-11.33-2.06-1.8-4.29-3.75-7.27-6.36,7.76-5.74,14.69-10.86,24.56-18.16-8.84,1.98-14.08,3.15-19.37,4.33,6.16-6.53,11.72-12.42,17.27-18.32,2.15-2.28,4.36-4.5,6.32-6.94,.37-.46-.33-1.79-.54-2.74-.58,.11-1.15,.22-1.73,.33,.01,0,.02-.02,.03-.03,8.03-7.87,17.19-13.78,27.62-18.31,2.62,8.3-10.09,9.6-6.7,17.49,6.28-4.47,12.46-9.1,18.92-13.3,1.69-1.1,4.27-.84,6.45-1.2,.31-5.42,4.5-3.08,7.41-3.43-.07-.05-.31-.28-.54-.52,.84-.99,1.68-1.97,2.53-2.96,.38,.38,.76,.76,1.14,1.14-.99,.84-1.97,1.68-3.12,2.34-.47,5.23-4.66,2.89-7.41,3.43,1.81,6.57-4.46,8.72-8.27,14.87,3.96-1.15,6.7-1.24,8.5-2.58,11.62-8.7,23.04-17.67,36.01-27.7v8.17c3.22-2.36,6.43-4.73,9.95-7.31,2.38,.11,5.17,.24,11.14,.51-9.54,3.15-11.54,8.72-13.84,14.05,3.84,.57,6.49-.95,9.41-3.62,2.65-2.42,6.76-3.23,11.39-5.26-1.18,5.5-1.93,9-2.69,12.5,3.12-.8,6.24-1.59,9.95-2.54,.39,1.11,1.14,3.21,1.94,5.48,.84-.34,1.87-.47,2.47-1.05,3.9-3.77,7.49-7.91,11.66-11.35,1.54-1.27,4.36-.99,6.76-1.22-.07-.05-.31-.28-.54-.52,.84-.99,1.68-1.97,2.53-2.96,.38,.38,.76,.76,1.14,1.14-.99,.84-1.97,1.68-3.13,2.34h0c-1.37,3.43-2.58,7.06-3.79,10.68,7.91,1.07,12.59-7.41,21.26-7.26,1.47,7.03-2.49,9.21-7.87,10.94-13.26,4.25-26.6,8.19-39.21,14.36-26.67,13.04-48.32,32.04-64.45,56.59-2.22,3.37-4.39,6.8-6.47,10.3-27.56-.13-51.13,5.55-74.55,16.91,3.01-10.73,5.37-19.11,7.73-27.52Zm101.28,14.06c-.62-.17-1.24-.34-1.85-.5,.4-.34,.78-.68,1.19-1.02,.27,.52,.48,1.02,.66,1.52Zm108.58,70.05c-7.48,6.77,.48,16.72-5.8,24.95-4.28,5.61-2.65,15.51-4.36,23.34-2.42,11.12-2.07,22.76-6.37,33.54-.62,1.56-.61,3.39-.77,5.11-1.23,12.77-.76,26-4.08,38.19-3.68,13.51-.38,27.41-3.72,40.1-4.99,18.97-2.09,37.74-2.92,56.56-.44,9.92-5.42,18.9-4.07,29.29,1.18,9.12,.08,18.5,.3,27.77-6.75-19.16-10.98-39.32-23.79-56.24-7-9.25-6.14-22.74-14.67-32.21-7.75-8.61-8.07-21.35-16.35-30.64-7.08-7.93-8.69-20.78-15.84-28.58-6.15-6.7-6.9-15.44-12.42-21.58-12.7-14.13-20.98-31.28-32.33-46.39-8.25-10.98-15.22-23.11-23.77-34.07-8.86-11.35-17.45-22.91-26.09-34.43-6.39-8.52-12.77-17.06-18.91-25.77-.82-1.17-.19-3.37-.36-10.9,5.09,5.46,7.81,8.37,9.8,10.51,2.74-3.1,4.39-4.97,5.69-6.44,5.27,1.56,9.59,2.84,13.91,4.12,.71-2.03,1.42-4.07,2.53-7.24,9.22,5.06,16.95,9.29,24.61,13.49,.26-.43,.81-1.33,1.53-2.53-.09,.69-.21,1.38-.36,2.08h6.1c.08-.35,.16-.7,.24-1.05,5.14,2.6,10.22,5.18,15.74,7.98-.29-2.6-.45-4.45-.71-6.29-.3-2.17-.69-4.33-1.15-7.22,7.55,2.31,14.89,2.67,19.6,6.37,9.95,7.83,22,10.05,33,14.92,5.85,2.59,12.4,3.59,22.34,6.33-5.68-6.93-8.6-10.5-13.75-16.79,11.31,3.25,19.26,7.94,26.57,13.39-.31,1.64-.72,3.29-1.26,4.98-1.96,6.23-.49,13.61-.09,20.48,.16,2.75,2.22,5.53,1.93,8.13-1.28,11.31,3.88,21.36,4.83,32.84,2.5-2.5,4.2-4.2,6.14-6.14,1.34-12.36-10.44-25.54,2.33-37.41,3.36,5.05,1.03,13.89,8.59,17.43-2.91-12,6.35-22.66,3.39-34.19l.28-.28c.65,.57,1.29,1.14,1.94,1.71-.28-.93-.57-1.86-.86-2.78,1.58-1.58,3.13-3.13,5.46-5.46v27.99c10.89-13.91,14.85-27.96,19.43-45.18,5.96,12.65-2.73,19.92-1.45,28.2Zm3.49-38.39c2.63-7.64,4.46-12.96,6.3-18.29,1.66,6.65,4.42,13.52-6.3,18.29Zm8.19-120.93h-7.25v-1.81h7.25v1.81Zm20.05-60.69c-.58-2.04-1.16-4.07,.02-.06l-.02,.06Zm.48-1.34c-.89-2.11-1.88-4.61-3.03-7.62,2.85,2.62,4.19,3.36,4.12,3.89-.18,1.27-.64,2.5-1.09,3.73Zm7.07,13.4c-1.99-3.06-3.61-5.56-5.97-10.86,4.86,1.2,8.76,3.14,5.97,10.86Z"/></svg>